<svg version="1.1" id="Layer_1" xmlns="http://www.w3.org/2000/svg" xmlns:xlink="http://www.w3.org/1999/xlink" x="0px" y="0px"
	 width="100%" viewBox="0 0 1241 118" enable-background="new 0 0 1241 118" xml:space="preserve">
<path fill="#000000" opacity="1.000000" stroke="none" 
	d="
M1.000000,84.000000 
	C1.000000,81.958328 1.000000,79.916656 1.468657,77.437164 
	C13.500368,76.999336 25.063421,76.999336 36.652744,76.999336 
	C36.652744,65.019409 36.652744,53.667324 36.652744,42.000000 
	C24.538233,42.000000 12.769116,42.000000 1.000000,42.000000 
	C1.000000,39.958328 1.000000,37.916656 1.468657,35.437492 
	C13.511961,35.000000 25.086607,35.000000 37.000000,35.000000 
	C37.000000,23.230371 37.000000,12.115186 37.000000,1.000000 
	C39.370800,1.000000 41.741596,1.000000 44.556694,1.468657 
	C45.000988,12.835610 45.000988,23.733906 45.000988,34.655106 
	C57.651852,34.655106 69.669403,34.655106 82.000000,34.655106 
	C82.000000,23.208632 82.000000,12.104316 82.000000,1.000000 
	C84.041672,1.000000 86.083344,1.000000 88.562515,1.468657 
	C89.000008,12.835810 89.000008,23.734304 89.000008,34.655251 
	C101.650864,34.655251 113.668655,34.655251 126.000000,34.655251 
	C126.000000,23.208885 126.000000,12.104443 126.000000,1.000000 
	C498.000000,1.000000 870.000000,1.000000 1242.000000,1.000000 
	C1242.000000,23.757648 1242.000000,46.416183 1241.687744,69.412582 
	C1235.654297,59.997772 1226.738403,54.727905 1216.218140,51.542221 
	C1207.296265,48.840561 1198.410034,46.002117 1189.604248,42.946808 
	C1185.947632,41.678108 1180.835449,40.430141 1181.591675,35.526630 
	C1182.350464,30.606510 1187.589966,30.356346 1191.695923,30.092731 
	C1200.660400,29.517189 1209.325439,31.078957 1217.332397,35.237041 
	C1220.690430,36.980858 1223.132324,36.728386 1225.681885,33.893044 
	C1228.684448,30.553921 1232.013306,27.509338 1235.178223,24.314838 
	C1239.507202,19.945425 1239.317993,19.338465 1233.986206,16.026045 
	C1218.838501,6.615357 1202.163208,4.563645 1184.925415,6.278833 
	C1175.608276,7.205911 1166.677612,10.001486 1158.926025,15.739270 
	C1140.562866,29.331940 1142.166870,52.321564 1162.606567,62.634373 
	C1169.681030,66.203728 1177.498779,68.318413 1185.018188,70.981110 
	C1190.821411,73.036102 1196.860596,74.530281 1202.441772,77.054298 
	C1204.601196,78.030869 1205.788330,81.157646 1207.418335,83.304871 
	C1205.328003,84.888336 1203.454590,87.294701 1201.109619,87.912750 
	C1190.958984,90.588264 1180.801636,88.513557 1172.054443,83.845551 
	C1162.662720,78.833595 1157.128418,81.501244 1150.711304,88.529297 
	C1140.518311,99.692894 1140.375977,99.467293 1154.525879,105.739319 
	C1169.924072,112.564690 1186.048828,114.417931 1202.417236,112.708992 
	C1217.512451,111.132988 1231.395508,106.137787 1239.737549,91.837769 
	C1240.195557,91.052460 1241.232544,90.604820 1242.000000,90.000000 
	C1242.000000,99.663078 1242.000000,109.326149 1242.000000,118.994614 
	C870.308411,119.000000 498.616852,119.000000 126.462692,118.531342 
	C126.000107,106.831856 126.000107,95.601036 126.000107,84.347008 
	C113.349457,84.347008 101.331566,84.347008 89.000000,84.347008 
	C89.000000,96.126274 89.000000,107.563141 89.000000,119.000000 
	C86.958328,119.000000 84.916656,119.000000 82.437576,118.531342 
	C82.000168,106.832008 82.000168,95.601334 82.000168,84.347328 
	C69.350250,84.347328 57.332638,84.347328 45.000000,84.347328 
	C45.000000,96.126747 45.000000,107.563377 45.000000,119.000000 
	C42.629200,119.000000 40.258404,119.000000 37.443855,118.531342 
	C37.000111,106.820938 37.000111,95.579201 37.000111,84.000000 
	C24.561100,84.000000 12.780550,84.000000 1.000000,84.000000 
M198.609177,92.585960 
	C199.470993,94.866699 199.681366,97.887344 201.298019,99.310730 
	C213.848389,110.360649 228.900085,113.785927 245.072968,111.700699 
	C255.861984,110.309631 265.452850,105.767250 272.565186,96.963280 
	C276.398621,92.218033 278.118500,87.005508 278.070831,80.841446 
	C277.891785,57.692833 278.004028,34.542007 277.989532,11.392027 
	C277.987640,8.387090 278.397949,5.043891 273.796326,5.043674 
	C253.644547,5.042723 233.492737,5.053695 213.340988,5.024925 
	C210.073685,5.020261 208.972107,6.760184 209.006470,9.756015 
	C209.059952,14.418610 209.138916,19.086649 208.975174,23.744225 
	C208.838470,27.631989 210.537369,29.086040 214.343658,29.029985 
	C223.168610,28.900017 232.000626,29.150887 240.822327,28.938223 
	C245.235168,28.831842 247.148773,30.232050 247.069595,34.918217 
	C246.852982,47.738678 246.914230,60.565784 247.025482,73.388870 
	C247.069977,78.519592 244.558807,81.849228 240.376236,84.254730 
	C234.466431,87.653595 229.160843,85.235535 223.849976,82.552589 
	C220.616226,80.918968 217.302246,79.444199 213.370056,78.098045 
	C211.564270,79.726524 209.758469,81.355003 207.599899,83.276070 
	C207.373383,83.482582 207.167908,83.708260 206.436783,84.332840 
	C203.943527,86.878967 201.450256,89.425102 198.609177,92.585960 
M895.000000,57.484066 
	C894.914795,79.140915 904.886475,94.921158 924.004944,104.341782 
	C943.221130,113.810570 963.343018,113.827652 983.106995,106.014603 
	C1002.390259,98.391655 1013.731812,83.721130 1015.822937,63.101036 
	C1018.201294,39.647980 1008.996643,21.586340 988.023987,10.012918 
	C975.551636,3.130264 962.004761,2.574232 948.222534,2.974792 
	C918.109070,3.849988 893.690491,28.278116 895.000000,57.484066 
M880.794556,39.864689 
	C875.930908,26.248325 867.215149,16.128630 854.206970,9.530025 
	C842.980469,3.835219 831.155457,2.593032 818.817688,2.924683 
	C802.613892,3.360257 788.817505,8.606894 777.131714,20.214201 
	C757.344177,39.868721 756.841370,79.519409 782.914856,98.970352 
	C798.647522,110.706940 816.508057,112.577049 835.174500,110.375427 
	C844.375244,109.290245 853.034058,106.093567 860.630493,100.726845 
	C880.525391,86.671722 887.101624,65.260056 880.794556,39.864689 
M513.471680,108.000206 
	C522.337830,108.626030 530.631409,106.694809 538.570374,102.733490 
	C555.412415,94.329758 557.005981,74.249969 547.452942,62.422264 
	C544.833618,59.179291 541.119568,56.820503 537.771423,53.938515 
	C538.427917,53.447121 539.362061,52.803978 540.234741,52.086044 
	C551.016602,43.215660 552.464417,24.228233 542.795105,15.477951 
	C535.371948,8.760416 526.398315,5.200993 516.406128,5.069102 
	C498.751709,4.836074 481.091187,4.892696 463.434814,5.031240 
	C446.752106,5.162146 449.340149,2.539973 448.935699,19.650955 
	C448.824097,24.371283 450.424408,26.142595 455.249390,26.076313 
	C470.738373,25.863539 486.232483,25.948147 501.723785,26.050089 
	C504.520935,26.068497 507.423065,26.350267 510.083313,27.152126 
	C514.061707,28.351276 516.752075,31.281843 516.739197,35.543407 
	C516.726685,39.693699 514.484253,42.891792 510.351288,44.146442 
	C508.325195,44.761505 506.105316,44.951160 503.971161,44.962505 
	C490.645142,45.033360 477.316925,44.868484 463.992554,45.032631 
	C446.540771,45.247631 449.315643,42.113220 448.963837,60.593967 
	C448.883545,64.813606 450.750000,66.110481 454.694519,66.040535 
	C463.353912,65.886963 472.017975,65.991631 480.680115,66.000275 
	C490.674713,66.010246 500.672089,65.894180 510.662750,66.100090 
	C516.141357,66.213005 519.815491,70.117188 519.931274,75.254570 
	C520.052307,80.625290 516.324707,84.544495 510.653778,84.941887 
	C509.160980,85.046501 507.656708,85.002022 506.157715,85.002350 
	C489.832886,85.005943 473.508057,84.999733 457.183228,85.007149 
	C449.012482,85.010864 449.011383,85.021049 449.000702,93.418823 
	C448.997314,96.084091 448.980255,98.749588 449.006195,101.414619 
	C449.066406,107.605270 449.385834,107.977150 455.510162,107.986931 
	C474.500214,108.017258 493.490356,107.999390 513.471680,108.000206 
M1095.409424,4.874889 
	C1094.924072,4.755008 1094.439697,4.533891 1093.953369,4.529843 
	C1075.136963,4.373230 1056.320190,4.165257 1037.505005,4.269536 
	C1036.345703,4.275962 1034.380737,6.667133 1034.205811,8.119288 
	C1033.730469,12.063204 1033.998901,16.098843 1034.003662,20.098078 
	C1034.012817,27.968515 1034.024902,27.985132 1041.699951,27.995598 
	C1056.197998,28.015368 1070.696899,27.937584 1085.193848,28.063478 
	C1092.026245,28.122812 1096.832031,31.697393 1099.787964,37.713268 
	C1102.206177,42.634571 1100.822754,47.197411 1097.738647,51.277531 
	C1094.469116,55.602993 1089.836304,57.041882 1084.533691,57.019642 
	C1069.536011,56.956734 1054.536865,57.086445 1039.540039,56.956921 
	C1035.447876,56.921577 1033.917480,58.492367 1033.956055,62.563530 
	C1034.091797,76.893738 1034.097534,91.226883 1033.955322,105.556961 
	C1033.913818,109.741341 1035.676147,111.139442 1039.659058,111.040848 
	C1046.653809,110.867714 1053.658203,110.884819 1060.654175,111.030182 
	C1064.464111,111.109337 1066.125000,109.633247 1066.029663,105.743469 
	C1065.878662,99.581543 1065.911377,93.410294 1066.079346,87.248787 
	C1066.121094,85.717583 1066.525146,83.696213 1067.549683,82.788055 
	C1070.333618,80.320274 1082.384888,82.270248 1084.550903,85.353943 
	C1089.624023,92.576828 1094.368652,100.046577 1099.756714,107.022118 
	C1101.311157,109.034546 1104.545044,110.664413 1107.106567,110.815353 
	C1115.243896,111.294861 1123.427490,111.027008 1131.592651,110.964767 
	C1133.095947,110.953308 1134.596313,110.552917 1136.140137,110.325844 
	C1135.922485,109.258537 1135.954834,108.864296 1135.777344,108.627129 
	C1129.594482,100.363365 1123.397705,92.109886 1117.190186,83.864616 
	C1110.715454,75.264435 1111.125854,77.117401 1119.204224,71.520645 
	C1137.183105,59.064919 1138.120972,29.322414 1120.254639,16.787806 
	C1113.050903,11.733833 1104.288330,8.901658 1095.409424,4.874889 
M356.998199,54.500946 
	C348.529541,41.138401 339.726074,27.972080 331.731689,14.331574 
	C327.658447,7.381570 322.963898,3.456319 314.623962,4.934054 
	C312.200439,5.363472 309.636505,4.984093 307.137207,5.005288 
	C299.650452,5.068776 298.995331,6.160696 302.861847,12.612013 
	C318.358124,38.467579 334.192657,64.127357 349.226929,90.248161 
	C353.228333,97.200249 357.696136,99.912132 365.432404,99.149612 
	C369.512848,98.747406 372.045593,97.564209 374.191162,93.948792 
	C389.659851,67.883331 405.352478,41.950829 420.944977,15.958673 
	C422.859955,12.766468 424.601990,9.470505 427.110107,4.999954 
	C420.173218,4.999954 414.528046,5.464011 408.993286,4.880592 
	C402.316833,4.176828 398.823944,7.211317 395.545685,12.632088 
	C385.982422,28.445343 375.877289,43.931305 365.937164,59.515335 
	C365.195648,60.677933 364.077942,61.600582 362.695679,63.116791 
	C360.656830,60.022278 359.033508,57.558464 356.998199,54.500946 
M743.494751,109.000000 
	C747.160278,108.989464 750.826538,108.929314 754.491089,108.983475 
	C757.653931,109.030220 759.037842,107.518333 758.987061,104.408348 
	C758.929993,100.910553 759.002930,97.410812 758.997070,93.911964 
	C758.983887,86.028610 758.977112,86.012009 751.314453,86.003906 
	C738.818115,85.990700 726.321777,86.008049 713.825439,85.996643 
	C706.028748,85.989525 706.007324,85.972771 706.003784,78.227905 
	C705.993530,56.067738 706.013062,33.907551 705.989502,11.747406 
	C705.982666,5.341496 705.647766,5.037969 699.149231,5.007701 
	C692.984497,4.978986 686.819397,4.974795 680.654724,5.009326 
	C674.425476,5.044220 674.019104,5.399942 674.014160,11.443666 
	C673.989380,41.768085 673.990295,72.092545 674.012268,102.416969 
	C674.016724,108.607712 674.384460,108.978188 680.515259,108.986809 
	C701.175842,109.015854 721.836487,108.999184 743.494751,109.000000 
M573.374573,50.737534 
	C572.936951,51.774216 572.122925,52.809002 572.117676,53.847858 
	C572.032104,70.816933 572.061462,87.786537 572.031677,104.755974 
	C572.025818,108.076416 573.914185,109.011612 576.845154,108.995003 
	C584.165222,108.953522 591.487976,108.877022 598.805176,109.029060 
	C602.734558,109.110703 604.098145,107.362747 604.030151,103.607254 
	C603.894531,96.123024 603.991577,88.634476 604.001587,81.147728 
	C604.012451,73.021263 604.016968,73.010017 611.928345,73.002861 
	C625.071777,72.990959 638.216064,72.912109 651.358154,73.042770 
	C655.339050,73.082352 657.243286,71.728851 657.031189,67.554291 
	C656.837219,63.737690 656.800232,59.890850 657.045471,56.079956 
	C657.335999,51.566788 655.573425,49.854530 650.992371,49.933395 
	C638.850769,50.142422 626.702942,49.955357 614.558044,50.012371 
	C601.091003,50.075588 587.624451,50.234615 573.374573,50.737534 
M572.000000,14.553905 
	C572.005859,17.382111 572.082153,20.212383 571.999146,23.037977 
	C571.903748,26.283407 573.138550,28.003113 576.626221,27.996836 
	C601.913757,27.951330 627.201477,27.957695 652.489136,27.984205 
	C655.640625,27.987509 657.030396,26.531242 656.986938,23.421804 
	C656.931152,19.429983 657.023071,15.436287 656.989014,11.443930 
	C656.937500,5.401278 656.575195,5.018003 650.362854,5.011464 
	C627.071411,4.986949 603.779968,4.997679 580.488525,5.001743 
	C572.036255,5.003218 572.036255,5.011596 572.000000,14.553905 
M78.150238,42.014725 
	C67.229698,42.014725 56.309162,42.014725 45.364311,42.014725 
	C45.364311,53.988373 45.364311,65.355301 45.364311,76.582443 
	C57.766804,76.582443 69.801537,76.582443 81.998367,76.582443 
	C81.998367,66.187386 82.113609,56.205608 81.868637,46.232681 
	C81.833664,44.809090 80.054344,43.428341 78.150238,42.014725 
M88.999565,65.477478 
	C88.999565,69.228943 88.999565,72.980400 88.999565,76.589073 
	C101.759918,76.589073 113.791206,76.589073 125.714447,76.589073 
	C125.714447,64.930626 125.714447,53.684402 125.714447,42.024574 
	C114.329163,42.024574 103.221756,41.915207 92.124413,42.199070 
	C91.051781,42.226513 89.218353,44.647369 89.144173,46.032490 
	C88.815567,52.168423 89.000473,58.331860 88.999565,65.477478 
M304.861084,52.640343 
	C303.573669,50.873615 302.286255,49.106888 300.527863,46.693806 
	C299.756561,48.446575 299.169403,49.160984 299.166687,49.877617 
	C299.096771,68.324547 299.004517,86.772804 299.250458,105.216393 
	C299.267334,106.482079 301.839722,108.712708 303.313507,108.790413 
	C310.440308,109.166145 317.603485,109.105499 324.739624,108.831535 
	C326.130585,108.778137 328.577545,107.152153 328.631195,106.149590 
	C328.936157,100.445984 330.074158,94.672546 326.693237,89.202286 
	C319.358673,77.335190 312.354248,65.264091 304.861084,52.640343 
M423.552063,49.247929 
	C416.242828,61.344421 409.257538,73.654274 401.489227,85.448395 
	C397.539001,91.445763 396.652557,97.567513 396.965637,104.346420 
	C397.125000,107.796852 398.665222,109.044991 401.931702,109.006042 
	C408.585999,108.926704 415.244568,108.870308 421.896118,109.026993 
	C425.905182,109.121445 427.108826,107.191483 427.028076,103.515617 
	C426.892853,97.362526 426.999512,91.204178 426.999420,85.048042 
	C426.999207,74.066811 427.060669,63.084724 426.916565,52.105354 
	C426.896820,50.602898 428.260406,46.961700 423.552063,49.247929 
z"/>
<path fill="#001125" opacity="1.000000" stroke="none" 
	d="
M1242.000000,89.531601 
	C1241.232544,90.604820 1240.195557,91.052460 1239.737549,91.837769 
	C1231.395508,106.137787 1217.512451,111.132988 1202.417236,112.708992 
	C1186.048828,114.417931 1169.924072,112.564690 1154.525879,105.739319 
	C1140.375977,99.467293 1140.518311,99.692894 1150.711304,88.529297 
	C1157.128418,81.501244 1162.662720,78.833595 1172.054443,83.845551 
	C1180.801636,88.513557 1190.958984,90.588264 1201.109619,87.912750 
	C1203.454590,87.294701 1205.328003,84.888336 1207.418335,83.304871 
	C1205.788330,81.157646 1204.601196,78.030869 1202.441772,77.054298 
	C1196.860596,74.530281 1190.821411,73.036102 1185.018188,70.981110 
	C1177.498779,68.318413 1169.681030,66.203728 1162.606567,62.634373 
	C1142.166870,52.321564 1140.562866,29.331940 1158.926025,15.739270 
	C1166.677612,10.001486 1175.608276,7.205911 1184.925415,6.278833 
	C1202.163208,4.563645 1218.838501,6.615357 1233.986206,16.026045 
	C1239.317993,19.338465 1239.507202,19.945425 1235.178223,24.314838 
	C1232.013306,27.509338 1228.684448,30.553921 1225.681885,33.893044 
	C1223.132324,36.728386 1220.690430,36.980858 1217.332397,35.237041 
	C1209.325439,31.078957 1200.660400,29.517189 1191.695923,30.092731 
	C1187.589966,30.356346 1182.350464,30.606510 1181.591675,35.526630 
	C1180.835449,40.430141 1185.947632,41.678108 1189.604248,42.946808 
	C1198.410034,46.002117 1207.296265,48.840561 1216.218140,51.542221 
	C1226.738403,54.727905 1235.654297,59.997772 1241.687744,69.875229 
	C1242.000000,76.354401 1242.000000,82.708794 1242.000000,89.531601 
z"/>
<path fill="#EF0003" opacity="1.000000" stroke="none" 
	d="
M45.468658,119.000000 
	C45.000000,107.563377 45.000000,96.126747 45.000000,84.347328 
	C57.332638,84.347328 69.350250,84.347328 82.000168,84.347328 
	C82.000168,95.601334 82.000168,106.832008 82.000084,118.531342 
	C69.979103,119.000000 57.958210,119.000000 45.468658,119.000000 
z"/>
<path fill="#EF0003" opacity="1.000000" stroke="none" 
	d="
M89.468658,119.000000 
	C89.000000,107.563141 89.000000,96.126274 89.000000,84.347008 
	C101.331566,84.347008 113.349457,84.347008 126.000107,84.347008 
	C126.000107,95.601036 126.000107,106.831856 126.000053,118.531342 
	C113.979103,119.000000 101.958214,119.000000 89.468658,119.000000 
z"/>
<path fill="#EF0003" opacity="1.000000" stroke="none" 
	d="
M1.000000,42.468658 
	C12.769116,42.000000 24.538233,42.000000 36.652744,42.000000 
	C36.652744,53.667324 36.652744,65.019409 36.652744,76.999336 
	C25.063421,76.999336 13.500368,76.999336 1.468657,76.999664 
	C1.000000,65.645775 1.000000,54.291546 1.000000,42.468658 
z"/>
<path fill="#EF0003" opacity="1.000000" stroke="none" 
	d="
M1.000000,84.468658 
	C12.780550,84.000000 24.561100,84.000000 37.000111,84.000000 
	C37.000111,95.579201 37.000111,106.820938 37.000053,118.531342 
	C25.074436,119.000000 13.148873,119.000000 1.000000,119.000000 
	C1.000000,107.646744 1.000000,96.292030 1.000000,84.468658 
z"/>
<path fill="#EF0003" opacity="1.000000" stroke="none" 
	d="
M125.531342,1.000000 
	C126.000000,12.104443 126.000000,23.208885 126.000000,34.655251 
	C113.668655,34.655251 101.650864,34.655251 89.000008,34.655251 
	C89.000008,23.734304 89.000008,12.835810 89.000000,1.468657 
	C101.020897,1.000000 113.041786,1.000000 125.531342,1.000000 
z"/>
<path fill="#EF0003" opacity="1.000000" stroke="none" 
	d="
M81.531342,1.000000 
	C82.000000,12.104316 82.000000,23.208632 82.000000,34.655106 
	C69.669403,34.655106 57.651852,34.655106 45.000988,34.655106 
	C45.000988,23.733906 45.000988,12.835610 45.000496,1.468657 
	C57.020893,1.000000 69.041786,1.000000 81.531342,1.000000 
z"/>
<path fill="#EF0003" opacity="1.000000" stroke="none" 
	d="
M36.531342,1.000000 
	C37.000000,12.115186 37.000000,23.230371 37.000000,35.000000 
	C25.086607,35.000000 13.511961,35.000000 1.468657,35.000000 
	C1.000000,23.737982 1.000000,12.475963 1.000000,1.000000 
	C12.686692,1.000000 24.374687,1.000000 36.531342,1.000000 
z"/>
<path fill="#001125" opacity="1.000000" stroke="none" 
	d="
M895.000000,57.000732 
	C893.690491,28.278116 918.109070,3.849988 948.222534,2.974792 
	C962.004761,2.574232 975.551636,3.130264 988.023987,10.012918 
	C1008.996643,21.586340 1018.201294,39.647980 1015.822937,63.101036 
	C1013.731812,83.721130 1002.390259,98.391655 983.106995,106.014603 
	C963.343018,113.827652 943.221130,113.810570 924.004944,104.341782 
	C904.886475,94.921158 894.914795,79.140915 895.000000,57.000732 
M950.127319,85.731369 
	C951.953186,85.819000 953.779724,85.994621 955.604797,85.980110 
	C968.202271,85.879974 978.982971,78.174606 982.989624,66.453979 
	C986.714355,55.558186 983.093201,41.339333 974.977051,34.992153 
	C964.176392,26.545574 949.576172,25.405142 939.122681,32.283066 
	C928.511658,39.264618 924.726074,49.437588 926.302612,61.620323 
	C927.897705,73.946793 936.165833,82.242569 950.127319,85.731369 
z"/>
<path fill="#001125" opacity="1.000000" stroke="none" 
	d="
M880.912720,40.249954 
	C887.101624,65.260056 880.525391,86.671722 860.630493,100.726845 
	C853.034058,106.093567 844.375244,109.290245 835.174500,110.375427 
	C816.508057,112.577049 798.647522,110.706940 782.914856,98.970352 
	C756.841370,79.519409 757.344177,39.868721 777.131714,20.214201 
	C788.817505,8.606894 802.613892,3.360257 818.817688,2.924683 
	C831.155457,2.593032 842.980469,3.835219 854.206970,9.530025 
	C867.215149,16.128630 875.930908,26.248325 880.912720,40.249954 
M795.802917,67.444420 
	C798.819763,74.349831 803.056335,79.948166 810.260132,83.210777 
	C821.327637,88.223213 836.587097,85.680008 844.400574,77.038193 
	C853.455078,67.023849 854.527161,52.766842 847.154358,40.413906 
	C841.450928,30.857876 827.624207,25.231783 816.075500,28.731560 
	C810.528503,30.412554 803.904724,32.699852 800.656006,36.930077 
	C794.114441,45.448238 791.866028,55.855732 795.802917,67.444420 
z"/>
<path fill="#001125" opacity="1.000000" stroke="none" 
	d="
M512.976074,108.000214 
	C493.490356,107.999390 474.500214,108.017258 455.510162,107.986931 
	C449.385834,107.977150 449.066406,107.605270 449.006195,101.414619 
	C448.980255,98.749588 448.997314,96.084091 449.000702,93.418823 
	C449.011383,85.021049 449.012482,85.010864 457.183228,85.007149 
	C473.508057,84.999733 489.832886,85.005943 506.157715,85.002350 
	C507.656708,85.002022 509.160980,85.046501 510.653778,84.941887 
	C516.324707,84.544495 520.052307,80.625290 519.931274,75.254570 
	C519.815491,70.117188 516.141357,66.213005 510.662750,66.100090 
	C500.672089,65.894180 490.674713,66.010246 480.680115,66.000275 
	C472.017975,65.991631 463.353912,65.886963 454.694519,66.040535 
	C450.750000,66.110481 448.883545,64.813606 448.963837,60.593967 
	C449.315643,42.113220 446.540771,45.247631 463.992554,45.032631 
	C477.316925,44.868484 490.645142,45.033360 503.971161,44.962505 
	C506.105316,44.951160 508.325195,44.761505 510.351288,44.146442 
	C514.484253,42.891792 516.726685,39.693699 516.739197,35.543407 
	C516.752075,31.281843 514.061707,28.351276 510.083313,27.152126 
	C507.423065,26.350267 504.520935,26.068497 501.723785,26.050089 
	C486.232483,25.948147 470.738373,25.863539 455.249390,26.076313 
	C450.424408,26.142595 448.824097,24.371283 448.935699,19.650955 
	C449.340149,2.539973 446.752106,5.162146 463.434814,5.031240 
	C481.091187,4.892696 498.751709,4.836074 516.406128,5.069102 
	C526.398315,5.200993 535.371948,8.760416 542.795105,15.477951 
	C552.464417,24.228233 551.016602,43.215660 540.234741,52.086044 
	C539.362061,52.803978 538.427917,53.447121 537.771423,53.938515 
	C541.119568,56.820503 544.833618,59.179291 547.452942,62.422264 
	C557.005981,74.249969 555.412415,94.329758 538.570374,102.733490 
	C530.631409,106.694809 522.337830,108.626030 512.976074,108.000214 
z"/>
<path fill="#001125" opacity="1.000000" stroke="none" 
	d="
M1095.822266,4.966613 
	C1104.288330,8.901658 1113.050903,11.733833 1120.254639,16.787806 
	C1138.120972,29.322414 1137.183105,59.064919 1119.204224,71.520645 
	C1111.125854,77.117401 1110.715454,75.264435 1117.190186,83.864616 
	C1123.397705,92.109886 1129.594482,100.363365 1135.777344,108.627129 
	C1135.954834,108.864296 1135.922485,109.258537 1136.140137,110.325844 
	C1134.596313,110.552917 1133.095947,110.953308 1131.592651,110.964767 
	C1123.427490,111.027008 1115.243896,111.294861 1107.106567,110.815353 
	C1104.545044,110.664413 1101.311157,109.034546 1099.756714,107.022118 
	C1094.368652,100.046577 1089.624023,92.576828 1084.550903,85.353943 
	C1082.384888,82.270248 1070.333618,80.320274 1067.549683,82.788055 
	C1066.525146,83.696213 1066.121094,85.717583 1066.079346,87.248787 
	C1065.911377,93.410294 1065.878662,99.581543 1066.029663,105.743469 
	C1066.125000,109.633247 1064.464111,111.109337 1060.654175,111.030182 
	C1053.658203,110.884819 1046.653809,110.867714 1039.659058,111.040848 
	C1035.676147,111.139442 1033.913818,109.741341 1033.955322,105.556961 
	C1034.097534,91.226883 1034.091797,76.893738 1033.956055,62.563530 
	C1033.917480,58.492367 1035.447876,56.921577 1039.540039,56.956921 
	C1054.536865,57.086445 1069.536011,56.956734 1084.533691,57.019642 
	C1089.836304,57.041882 1094.469116,55.602993 1097.738647,51.277531 
	C1100.822754,47.197411 1102.206177,42.634571 1099.787964,37.713268 
	C1096.832031,31.697393 1092.026245,28.122812 1085.193848,28.063478 
	C1070.696899,27.937584 1056.197998,28.015368 1041.699951,27.995598 
	C1034.024902,27.985132 1034.012817,27.968515 1034.003662,20.098078 
	C1033.998901,16.098843 1033.730469,12.063204 1034.205811,8.119288 
	C1034.380737,6.667133 1036.345703,4.275962 1037.505005,4.269536 
	C1056.320190,4.165257 1075.136963,4.373230 1093.953369,4.529843 
	C1094.439697,4.533891 1094.924072,4.755008 1095.822266,4.966613 
z"/>
<path fill="#001125" opacity="1.000000" stroke="none" 
	d="
M214.024292,77.898079 
	C217.302246,79.444199 220.616226,80.918968 223.849976,82.552589 
	C229.160843,85.235535 234.466431,87.653595 240.376236,84.254730 
	C244.558807,81.849228 247.069977,78.519592 247.025482,73.388870 
	C246.914230,60.565784 246.852982,47.738678 247.069595,34.918217 
	C247.148773,30.232050 245.235168,28.831842 240.822327,28.938223 
	C232.000626,29.150887 223.168610,28.900017 214.343658,29.029985 
	C210.537369,29.086040 208.838470,27.631989 208.975174,23.744225 
	C209.138916,19.086649 209.059952,14.418610 209.006470,9.756015 
	C208.972107,6.760184 210.073685,5.020261 213.340988,5.024925 
	C233.492737,5.053695 253.644547,5.042723 273.796326,5.043674 
	C278.397949,5.043891 277.987640,8.387090 277.989532,11.392027 
	C278.004028,34.542007 277.891785,57.692833 278.070831,80.841446 
	C278.118500,87.005508 276.398621,92.218033 272.565186,96.963280 
	C265.452850,105.767250 255.861984,110.309631 245.072968,111.700699 
	C228.900085,113.785927 213.848389,110.360649 201.298019,99.310730 
	C199.681366,97.887344 199.470993,94.866699 199.081924,92.379356 
	C204.890945,92.017708 206.156036,88.183167 206.983490,83.953110 
	C207.167908,83.708260 207.373383,83.482582 208.134720,83.087646 
	C210.454453,81.232185 212.239380,79.565132 214.024292,77.898079 
z"/>
<path fill="#001125" opacity="1.000000" stroke="none" 
	d="
M357.204193,54.797798 
	C359.033508,57.558464 360.656830,60.022278 362.695679,63.116791 
	C364.077942,61.600582 365.195648,60.677933 365.937164,59.515335 
	C375.877289,43.931305 385.982422,28.445343 395.545685,12.632088 
	C398.823944,7.211317 402.316833,4.176828 408.993286,4.880592 
	C414.528046,5.464011 420.173218,4.999954 427.110107,4.999954 
	C424.601990,9.470505 422.859955,12.766468 420.944977,15.958673 
	C405.352478,41.950829 389.659851,67.883331 374.191162,93.948792 
	C372.045593,97.564209 369.512848,98.747406 365.432404,99.149612 
	C357.696136,99.912132 353.228333,97.200249 349.226929,90.248161 
	C334.192657,64.127357 318.358124,38.467579 302.861847,12.612013 
	C298.995331,6.160696 299.650452,5.068776 307.137207,5.005288 
	C309.636505,4.984093 312.200439,5.363472 314.623962,4.934054 
	C322.963898,3.456319 327.658447,7.381570 331.731689,14.331574 
	C339.726074,27.972080 348.529541,41.138401 357.204193,54.797798 
z"/>
<path fill="#001125" opacity="1.000000" stroke="none" 
	d="
M742.995911,109.000000 
	C721.836487,108.999184 701.175842,109.015854 680.515259,108.986809 
	C674.384460,108.978188 674.016724,108.607712 674.012268,102.416969 
	C673.990295,72.092545 673.989380,41.768085 674.014160,11.443666 
	C674.019104,5.399942 674.425476,5.044220 680.654724,5.009326 
	C686.819397,4.974795 692.984497,4.978986 699.149231,5.007701 
	C705.647766,5.037969 705.982666,5.341496 705.989502,11.747406 
	C706.013062,33.907551 705.993530,56.067738 706.003784,78.227905 
	C706.007324,85.972771 706.028748,85.989525 713.825439,85.996643 
	C726.321777,86.008049 738.818115,85.990700 751.314453,86.003906 
	C758.977112,86.012009 758.983887,86.028610 758.997070,93.911964 
	C759.002930,97.410812 758.929993,100.910553 758.987061,104.408348 
	C759.037842,107.518333 757.653931,109.030220 754.491089,108.983475 
	C750.826538,108.929314 747.160278,108.989464 742.995911,109.000000 
z"/>
<path fill="#001125" opacity="1.000000" stroke="none" 
	d="
M573.766113,50.544731 
	C587.624451,50.234615 601.091003,50.075588 614.558044,50.012371 
	C626.702942,49.955357 638.850769,50.142422 650.992371,49.933395 
	C655.573425,49.854530 657.335999,51.566788 657.045471,56.079956 
	C656.800232,59.890850 656.837219,63.737690 657.031189,67.554291 
	C657.243286,71.728851 655.339050,73.082352 651.358154,73.042770 
	C638.216064,72.912109 625.071777,72.990959 611.928345,73.002861 
	C604.016968,73.010017 604.012451,73.021263 604.001587,81.147728 
	C603.991577,88.634476 603.894531,96.123024 604.030151,103.607254 
	C604.098145,107.362747 602.734558,109.110703 598.805176,109.029060 
	C591.487976,108.877022 584.165222,108.953522 576.845154,108.995003 
	C573.914185,109.011612 572.025818,108.076416 572.031677,104.755974 
	C572.061462,87.786537 572.032104,70.816933 572.117676,53.847858 
	C572.122925,52.809002 572.936951,51.774216 573.766113,50.544731 
z"/>
<path fill="#001125" opacity="1.000000" stroke="none" 
	d="
M572.000000,14.069674 
	C572.036255,5.011596 572.036255,5.003218 580.488525,5.001743 
	C603.779968,4.997679 627.071411,4.986949 650.362854,5.011464 
	C656.575195,5.018003 656.937500,5.401278 656.989014,11.443930 
	C657.023071,15.436287 656.931152,19.429983 656.986938,23.421804 
	C657.030396,26.531242 655.640625,27.987509 652.489136,27.984205 
	C627.201477,27.957695 601.913757,27.951330 576.626221,27.996836 
	C573.138550,28.003113 571.903748,26.283407 571.999146,23.037977 
	C572.082153,20.212383 572.005859,17.382111 572.000000,14.069674 
z"/>
<path fill="#EF0003" opacity="1.000000" stroke="none" 
	d="
M78.616287,42.021244 
	C80.054344,43.428341 81.833664,44.809090 81.868637,46.232681 
	C82.113609,56.205608 81.998367,66.187386 81.998367,76.582443 
	C69.801537,76.582443 57.766804,76.582443 45.364311,76.582443 
	C45.364311,65.355301 45.364311,53.988373 45.364311,42.014725 
	C56.309162,42.014725 67.229698,42.014725 78.616287,42.021244 
z"/>
<path fill="#EF0003" opacity="1.000000" stroke="none" 
	d="
M88.999565,64.981415 
	C89.000473,58.331860 88.815567,52.168423 89.144173,46.032490 
	C89.218353,44.647369 91.051781,42.226513 92.124413,42.199070 
	C103.221756,41.915207 114.329163,42.024574 125.714447,42.024574 
	C125.714447,53.684402 125.714447,64.930626 125.714447,76.589073 
	C113.791206,76.589073 101.759918,76.589073 88.999565,76.589073 
	C88.999565,72.980400 88.999565,69.228943 88.999565,64.981415 
z"/>
<path fill="#001125" opacity="1.000000" stroke="none" 
	d="
M305.037964,52.958374 
	C312.354248,65.264091 319.358673,77.335190 326.693237,89.202286 
	C330.074158,94.672546 328.936157,100.445984 328.631195,106.149590 
	C328.577545,107.152153 326.130585,108.778137 324.739624,108.831535 
	C317.603485,109.105499 310.440308,109.166145 303.313507,108.790413 
	C301.839722,108.712708 299.267334,106.482079 299.250458,105.216393 
	C299.004517,86.772804 299.096771,68.324547 299.166687,49.877617 
	C299.169403,49.160984 299.756561,48.446575 300.527863,46.693806 
	C302.286255,49.106888 303.573669,50.873615 305.037964,52.958374 
z"/>
<path fill="#001125" opacity="1.000000" stroke="none" 
	d="
M423.777496,48.998428 
	C428.260406,46.961700 426.896820,50.602898 426.916565,52.105354 
	C427.060669,63.084724 426.999207,74.066811 426.999420,85.048042 
	C426.999512,91.204178 426.892853,97.362526 427.028076,103.515617 
	C427.108826,107.191483 425.905182,109.121445 421.896118,109.026993 
	C415.244568,108.870308 408.585999,108.926704 401.931702,109.006042 
	C398.665222,109.044991 397.125000,107.796852 396.965637,104.346420 
	C396.652557,97.567513 397.539001,91.445763 401.489227,85.448395 
	C409.257538,73.654274 416.242828,61.344421 423.777496,48.998428 
z"/>
<path fill="#001125" opacity="1.000000" stroke="none" 
	d="
M206.710144,84.142975 
	C206.156036,88.183167 204.890945,92.017708 199.255829,92.071991 
	C201.450256,89.425102 203.943527,86.878967 206.710144,84.142975 
z"/>
<path fill="#001125" opacity="1.000000" stroke="none" 
	d="
M213.697174,77.998062 
	C212.239380,79.565132 210.454453,81.232185 208.311096,82.941360 
	C209.758469,81.355003 211.564270,79.726524 213.697174,77.998062 
z"/>
<path fill="#000000" opacity="1.000000" stroke="none" 
	d="
M949.707275,85.641159 
	C936.165833,82.242569 927.897705,73.946793 926.302612,61.620323 
	C924.726074,49.437588 928.511658,39.264618 939.122681,32.283066 
	C949.576172,25.405142 964.176392,26.545574 974.977051,34.992153 
	C983.093201,41.339333 986.714355,55.558186 982.989624,66.453979 
	C978.982971,78.174606 968.202271,85.879974 955.604797,85.980110 
	C953.779724,85.994621 951.953186,85.819000 949.707275,85.641159 
z"/>
<path fill="#000000" opacity="1.000000" stroke="none" 
	d="
M795.651550,67.076767 
	C791.866028,55.855732 794.114441,45.448238 800.656006,36.930077 
	C803.904724,32.699852 810.528503,30.412554 816.075500,28.731560 
	C827.624207,25.231783 841.450928,30.857876 847.154358,40.413906 
	C854.527161,52.766842 853.455078,67.023849 844.400574,77.038193 
	C836.587097,85.680008 821.327637,88.223213 810.260132,83.210777 
	C803.056335,79.948166 798.819763,74.349831 795.651550,67.076767 
z"/>
</svg>